<svg viewBox="0 0 250 365" class="looka-1j8o68f"><path fill="#c6f14f" d="M0 360h250v5H0z"/><g fill="#c6f14f"><path xmlns="http://www.w3.org/2000/svg" d="M99.555 142.181h35.459a45.886 45.886 0 0 0 45.753-45.753v-57.19a17.443 17.443 0 0 1 17.424-17.425h8.598a1.906 1.906 0 0 0 0-3.813h-8.522a21.256 21.256 0 0 0-21.237 21.085v57.19a42.074 42.074 0 0 1-41.94 41.941h-14.87a57.61 57.61 0 1 0-20.588 3.813Zm0-111.465a53.836 53.836 0 1 1-53.817 53.817 53.893 53.893 0 0 1 53.817-53.817"/><path xmlns="http://www.w3.org/2000/svg" d="M99.555 67.947a13.192 13.192 0 1 0-13.192-13.192 13.21 13.21 0 0 0 13.192 13.192m0-22.59a9.38 9.38 0 1 1-9.379 9.379 9.4 9.4 0 0 1 9.38-9.36Zm0 82.164a13.192 13.192 0 1 0-13.192-13.192 13.21 13.21 0 0 0 13.192 13.192m0-22.59a9.38 9.38 0 1 1-9.379 9.398 9.4 9.4 0 0 1 9.38-9.398m-5.624-20.398a5.72 5.72 0 1 0 5.719-5.72 5.72 5.72 0 0 0-5.72 5.72m7.454 0a1.906 1.906 0 1 1-1.906-1.907 1.906 1.906 0 0 1 1.906 1.907m27.967 13.21a13.192 13.192 0 1 0-13.192-13.191 13.21 13.21 0 0 0 13.192 13.192m0-22.59a9.38 9.38 0 1 1-9.38 9.379 9.4 9.4 0 0 1 9.38-9.38m-46.382 9.38a13.192 13.192 0 1 0-13.192 13.192A13.21 13.21 0 0 0 82.97 84.533m-22.59 0a9.38 9.38 0 1 1 9.379 9.379 9.4 9.4 0 0 1-9.38-9.38"/></g><path d="M45.99 162.158h26.484v113.23H57.567v-89.6l-14.114 89.918h-5.868l-1.427-.317-1.27.317h-5.867l-13.955-89.918v89.6H0v-113.23h26.642l9.674 64.07zm57.832 113.707c-11.894 0-21.409-9.674-21.409-21.41V183.25c0-11.735 9.515-21.25 21.41-21.25 11.735 0 21.25 9.515 21.25 21.25v71.205c0 11.736-9.515 21.41-21.25 21.41m0-98.8c-3.49 0-6.186 2.855-6.186 6.185v71.205c0 3.49 2.696 6.185 6.185 6.185 3.33 0 6.185-2.696 6.185-6.185V183.25c0-3.33-2.854-6.184-6.185-6.184m59.418 98.64h-15.7l-15.858-113.23h15.224l8.247 58.36 7.612-58.36h15.224zm39.754-113.548v112.914h-15.066V162.158zm46.89 53.761h-21.885v44.721h22.044v15.066h-37.11v-113.23h37.11v15.065h-22.044v23.312h21.885zM11.295 347.111A11.295 11.295 0 0 1 0 335.816V298.39a11.295 11.295 0 0 1 22.59 0v3.372h-8.008v-3.372c0-1.77-1.517-3.287-3.287-3.287s-3.287 1.517-3.287 3.287v37.426c0 1.77 1.517 3.287 3.287 3.287s3.287-1.517 3.287-3.287v-5.395h8.008v5.395c0 6.238-5.057 11.295-11.295 11.295m39 .169-3.035-20.82h-8.513l-2.782 20.82h-8.092l9.104-60.269H47.85l10.537 60.269zm-10.452-28.828h6.237l-3.203-21.916zm44.478-31.525v8.092h-10.03v52.345h-8.093v-52.345H55.156v-8.092zm21.383 60.353-3.035-20.82h-8.513l-2.782 20.82h-8.092l9.104-60.269h10.873l10.537 60.269zm-10.452-28.828h6.237l-3.203-21.916zm31.75 20.904h11.632v7.924H119.08v-60.522h7.923zm28.295 8.008c-6.322 0-11.38-5.142-11.38-11.38v-37.846c0-6.238 5.058-11.295 11.38-11.295 6.237 0 11.295 5.057 11.295 11.295v37.847c0 6.237-5.058 11.379-11.295 11.379m0-52.514c-1.855 0-3.288 1.517-3.288 3.288v37.847c0 1.854 1.433 3.287 3.288 3.287 1.77 0 3.287-1.433 3.287-3.287v-37.847c0-1.77-1.517-3.288-3.287-3.288m29.053 53.104h-1.854c-5.9 0-10.621-4.72-10.621-10.62v-40.63c0-5.9 4.72-10.704 10.62-10.704h1.855c5.9 0 10.62 4.804 10.62 10.705v4.299h-8.26v-4.3c0-1.432-1.011-2.444-2.36-2.444h-1.854c-1.265 0-2.445 1.012-2.445 2.445v40.628c0 1.265 1.18 2.445 2.445 2.445h1.854c1.349 0 2.36-1.18 2.36-2.445v-21.916h-4.72v-8.176h12.98v30.092c0 5.9-4.72 10.62-10.62 10.62m28.295-.505a12.41 12.41 0 0 1-12.391-12.39V287.18h8.007v47.877c0 2.445 1.94 4.468 4.384 4.468s4.383-2.023 4.383-4.468V287.18h8.007v47.877a12.41 12.41 0 0 1-12.39 12.391m37.313-31.946h-11.632v23.77h11.717v8.008h-19.725v-60.185h19.725v8.008h-11.717v12.391h11.632z" fill="#c6f14f"/></svg>
